<svg width="34" height="41" viewBox="0 0 34 41" fill="none" xmlns="http://www.w3.org/2000/svg">
<g clip-path="url(#clip0_50_2)">
<path d="M11.4648 0.283798C11.0292 0.651749 10.8379 1.11431 10.8379 1.83969C10.8379 2.48098 11.0398 2.97508 11.3692 3.1538C11.5817 3.25893 11.5817 3.38508 11.5817 9.3879V15.5169L5.98228 25.4935C2.90103 30.9917 0.287283 35.7435 0.181033 36.0589C-0.392717 37.6989 0.627283 39.6964 2.49728 40.632L3.13478 40.9474H17.0004H30.866L31.4717 40.653C32.3748 40.2115 33.1823 39.4335 33.5967 38.603C33.8942 38.0038 33.9473 37.7935 33.9473 37.1102C33.9473 36.6687 33.8835 36.1641 33.7985 35.9538C33.7135 35.7541 31.2167 31.2546 28.2629 25.9666C25.2985 20.6787 22.7698 16.1476 22.6423 15.9058C22.4192 15.4643 22.4192 15.3802 22.4192 9.36687C22.4192 3.38508 22.4192 3.25893 22.6317 3.1538C22.961 2.97508 23.1629 2.48098 23.1629 1.83969C23.1629 1.11431 22.9717 0.651749 22.536 0.283798L22.1854 -4.95911e-05H17.0004H11.8154L11.4648 0.283798ZM21.6754 1.26149C21.8242 1.40867 21.8879 1.60841 21.8879 1.93431C21.8879 2.43893 21.686 2.73328 21.346 2.73328C21.1442 2.73328 21.1442 2.89098 21.1442 9.65072V16.5682L26.106 25.5987C28.8367 30.5712 31.1848 34.9235 31.3229 35.2705C32.141 37.2469 31.0254 38.992 28.6667 39.423C28.2842 39.4966 24.066 39.5176 16.671 39.5071C5.57853 39.4756 5.24916 39.4651 4.74978 39.2653C3.59166 38.7923 2.64603 37.7305 2.48666 36.7423C2.34853 35.7646 2.44416 35.5648 7.75666 25.8615L12.8567 16.5682V9.65072V2.73328H12.591C12.2617 2.73328 12.1129 2.45995 12.1129 1.85021C12.1129 1.0197 11.9535 1.05124 17.0217 1.05124C21.3248 1.05124 21.4735 1.06175 21.6754 1.26149Z" fill="#FFF"/>
<path d="M18.6583 3.17482C18.5095 3.38507 18.4883 4.14199 18.4883 9.35635C18.4883 12.6258 18.5308 15.3487 18.5733 15.4117C18.6158 15.4748 18.7539 15.5799 18.892 15.6535C19.0939 15.7587 19.1895 15.7587 19.402 15.6115L19.657 15.4538V9.32481C19.657 4.69917 19.6252 3.1643 19.5295 3.06969C19.317 2.85943 18.8389 2.92251 18.6583 3.17482Z" fill="#FFF"/>
<path d="M20.305 19.5013C20.1138 19.5854 19.5506 19.9008 19.0619 20.1846C17.8931 20.889 16.9475 21.3095 16.0656 21.5092C15.1413 21.73 13.4838 21.6564 12.57 21.362L11.9113 21.1518L8.25625 27.7959C6.24812 31.4438 4.54812 34.5872 4.47375 34.7869C4.07 36.0064 4.65438 37.289 5.96125 38.0038L6.535 38.3192H17.2131C27.8488 38.3192 27.8913 38.3192 28.38 38.0984C29.0388 37.7936 29.6338 37.2469 29.8675 36.7423C30.1013 36.2377 30.1225 35.3966 29.9206 34.8184C29.7613 34.3664 22.4513 20.5841 22.0688 20.0059C21.6438 19.3751 21.0275 19.1964 20.305 19.5013ZM19.8056 24.3897C20.1138 24.6841 20.0713 25.2097 19.7206 25.5146C19.4019 25.7879 19.2531 25.809 18.8706 25.6408C18.4881 25.462 18.2969 24.9574 18.4988 24.6105C18.8069 24.0743 19.37 23.9797 19.8056 24.3897ZM14.0469 26.5659C14.525 26.9864 14.6631 27.6172 14.3975 28.1954C14.3231 28.3741 14.3444 28.3741 14.7056 28.2269C15.4706 27.9115 16.395 28.0692 17.075 28.6474C17.6488 29.131 17.8931 29.7513 17.8294 30.5923C17.7656 31.4333 17.3725 32.0115 16.5863 32.4005C15.5981 32.8946 14.695 32.7474 13.9087 31.9695C13.1331 31.2125 12.9738 30.1297 13.4837 29.2677L13.6856 28.9313H13.25C12.0706 28.9523 11.4012 27.8274 12.0175 26.8497C12.1344 26.65 12.2406 26.4923 12.2512 26.4923C12.2619 26.4923 12.4531 26.4292 12.6869 26.3451C13.165 26.1769 13.7175 26.2715 14.0469 26.5659Z" fill="#89E73F"/>
</g>
<defs>
<clipPath id="clip0_50_2">
<rect width="34" height="41" fill="white"/>
</clipPath>
</defs>
</svg>
