<svg width="173" height="79" viewBox="0 0 173 79" fill="none" xmlns="http://www.w3.org/2000/svg">
<g clip-path="url(#clip0_692_507)">
<path d="M16.2146 0.45314C15.5987 1.04072 15.3283 1.77939 15.3283 2.93776C15.3283 3.96183 15.6137 4.75087 16.0794 5.03627C16.3798 5.20415 16.3798 5.4056 16.3798 14.9916V24.779L8.46347 40.7108C4.10722 49.4909 0.411917 57.0791 0.261702 57.5827C-0.549462 60.2017 0.892607 63.3914 3.5364 64.8855L4.43769 65.3892H24.0408H43.6439L44.5002 64.9191C45.777 64.214 46.9186 62.9717 47.5045 61.6454C47.9251 60.6885 48.0002 60.3528 48.0002 59.2615C48.0002 58.5564 47.9101 57.7506 47.7899 57.4149C47.6697 57.0959 44.1396 49.9106 39.9637 41.4662C35.7726 33.0219 32.1975 25.7862 32.0173 25.4001C31.7018 24.695 31.7018 24.5607 31.7018 14.958C31.7018 5.4056 31.7018 5.20415 32.0022 5.03627C32.4679 4.75087 32.7533 3.96183 32.7533 2.93776C32.7533 1.77939 32.4829 1.04072 31.867 0.45314L31.3713 -0.000137329H24.0408H16.7103L16.2146 0.45314ZM30.6503 2.01442C30.8606 2.24945 30.9507 2.56843 30.9507 3.08886C30.9507 3.89468 30.6653 4.36475 30.1846 4.36475C29.8992 4.36475 29.8992 4.61657 29.8992 15.4113V26.4578L36.9143 40.8787C40.7748 48.8194 44.0946 55.7696 44.2899 56.3236C45.4465 59.4798 43.8693 62.2666 40.5345 62.9549C39.9937 63.0724 34.0301 63.106 23.5751 63.0892C7.89265 63.0388 7.42698 63.0221 6.72097 62.7031C5.08362 61.9476 3.7467 60.252 3.52138 58.674C3.3261 57.1127 3.46129 56.7937 10.9721 41.2984L18.1824 26.4578V15.4113V4.36475H17.8069C17.3412 4.36475 17.1309 3.92826 17.1309 2.95455C17.1309 1.6283 16.9056 1.67867 24.0709 1.67867C30.1546 1.67867 30.3649 1.69545 30.6503 2.01442Z" fill="black"/>
<path d="M26.3844 5.06979C26.1741 5.40555 26.144 6.61428 26.144 14.9411C26.144 20.1622 26.2041 24.5103 26.2642 24.611C26.3243 24.7118 26.5196 24.8796 26.7149 24.9972C27.0003 25.165 27.1355 25.165 27.4359 24.93L27.7964 24.6782V14.8908C27.7964 7.50405 27.7513 5.053 27.6162 4.90191C27.3157 4.56615 26.6398 4.66688 26.3844 5.06979Z" fill="black"/>
<path d="M28.7127 31.1418C28.4423 31.2761 27.6462 31.7798 26.9552 32.2331C25.3028 33.3579 23.9659 34.0294 22.7191 34.3484C21.4122 34.7009 19.0689 34.5834 17.777 34.1133L16.8457 33.7776L11.6783 44.3876C8.83921 50.213 6.43576 55.2326 6.33061 55.5516C5.7598 57.499 6.58598 59.5472 8.43363 60.6887L9.24479 61.1924H24.3414C39.378 61.1924 39.4381 61.1924 40.1291 60.8398C41.0604 60.353 41.9016 59.48 42.2321 58.6742C42.5626 57.8684 42.5926 56.5253 42.3072 55.602C42.0819 54.8801 31.7471 32.871 31.2063 31.9477C30.6054 30.9404 29.7342 30.655 28.7127 31.1418ZM28.0067 38.9483C28.4423 39.4183 28.3822 40.2577 27.8865 40.7446C27.4359 41.1811 27.2256 41.2147 26.6848 40.946C26.144 40.6606 25.8736 39.8548 26.1591 39.3008C26.5947 38.4446 27.3908 38.2935 28.0067 38.9483ZM19.865 42.4234C20.541 43.0949 20.7363 44.1022 20.3607 45.0255C20.2556 45.3109 20.2856 45.3109 20.7964 45.0759C21.8779 44.5723 23.1848 44.8241 24.1462 45.7474C24.9573 46.5197 25.3028 47.5102 25.2127 48.8532C25.1226 50.1962 24.5668 51.1196 23.4552 51.7407C22.0582 52.5298 20.7813 52.2947 19.6697 51.0524C18.5732 49.8437 18.3479 48.1145 19.0689 46.7379L19.3543 46.2007H18.7384C17.071 46.2343 16.1247 44.438 16.9959 42.8767C17.1611 42.5577 17.3114 42.3059 17.3264 42.3059C17.3414 42.3059 17.6118 42.2051 17.9423 42.0708C18.6182 41.8022 19.3994 41.9533 19.865 42.4234Z" fill="#82DE25"/>
</g>
<path d="M53.66 34V20H60.02C61.54 20 62.88 20.2933 64.04 20.88C65.2 21.4533 66.1067 22.26 66.76 23.3C67.4133 24.34 67.74 25.5733 67.74 27C67.74 28.4133 67.4133 29.6467 66.76 30.7C66.1067 31.74 65.2 32.5533 64.04 33.14C62.88 33.7133 61.54 34 60.02 34H53.66ZM56.9 31.34H59.86C60.7933 31.34 61.6 31.1667 62.28 30.82C62.9733 30.46 63.5067 29.9533 63.88 29.3C64.2667 28.6467 64.46 27.88 64.46 27C64.46 26.1067 64.2667 25.34 63.88 24.7C63.5067 24.0467 62.9733 23.5467 62.28 23.2C61.6 22.84 60.7933 22.66 59.86 22.66H56.9V31.34ZM75.3034 34.16C74.0768 34.16 72.9968 33.92 72.0634 33.44C71.1434 32.96 70.4301 32.3067 69.9234 31.48C69.4168 30.64 69.1634 29.6867 69.1634 28.62C69.1634 27.54 69.4101 26.5867 69.9034 25.76C70.4101 24.92 71.0968 24.2667 71.9634 23.8C72.8301 23.32 73.8101 23.08 74.9034 23.08C75.9568 23.08 76.9034 23.3067 77.7434 23.76C78.5968 24.2 79.2701 24.84 79.7634 25.68C80.2568 26.5067 80.5034 27.5 80.5034 28.66C80.5034 28.78 80.4968 28.92 80.4834 29.08C80.4701 29.2267 80.4568 29.3667 80.4434 29.5H71.7034V27.68H78.8034L77.6034 28.22C77.6034 27.66 77.4901 27.1733 77.2634 26.76C77.0368 26.3467 76.7234 26.0267 76.3234 25.8C75.9234 25.56 75.4568 25.44 74.9234 25.44C74.3901 25.44 73.9168 25.56 73.5034 25.8C73.1034 26.0267 72.7901 26.3533 72.5634 26.78C72.3368 27.1933 72.2234 27.6867 72.2234 28.26V28.74C72.2234 29.3267 72.3501 29.8467 72.6034 30.3C72.8701 30.74 73.2368 31.08 73.7034 31.32C74.1834 31.5467 74.7434 31.66 75.3834 31.66C75.9568 31.66 76.4568 31.5733 76.8834 31.4C77.3234 31.2267 77.7234 30.9667 78.0834 30.62L79.7434 32.42C79.2501 32.98 78.6301 33.4133 77.8834 33.72C77.1368 34.0133 76.2768 34.16 75.3034 34.16ZM85.3053 34L80.7853 23.24H84.0053L87.7653 32.5H86.1653L90.0653 23.24H93.0653L88.5253 34H85.3053ZM94.5584 34V20H97.7984V31.36H104.818V34H94.5584ZM113.087 34V31.9L112.887 31.44V27.68C112.887 27.0133 112.68 26.4933 112.267 26.12C111.867 25.7467 111.247 25.56 110.407 25.56C109.834 25.56 109.267 25.6533 108.707 25.84C108.16 26.0133 107.694 26.2533 107.307 26.56L106.187 24.38C106.774 23.9667 107.48 23.6467 108.307 23.42C109.134 23.1933 109.974 23.08 110.827 23.08C112.467 23.08 113.74 23.4667 114.647 24.24C115.554 25.0133 116.007 26.22 116.007 27.86V34H113.087ZM109.807 34.16C108.967 34.16 108.247 34.02 107.647 33.74C107.047 33.4467 106.587 33.0533 106.267 32.56C105.947 32.0667 105.787 31.5133 105.787 30.9C105.787 30.26 105.94 29.7 106.247 29.22C106.567 28.74 107.067 28.3667 107.747 28.1C108.427 27.82 109.314 27.68 110.407 27.68H113.267V29.5H110.747C110.014 29.5 109.507 29.62 109.227 29.86C108.96 30.1 108.827 30.4 108.827 30.76C108.827 31.16 108.98 31.48 109.287 31.72C109.607 31.9467 110.04 32.06 110.587 32.06C111.107 32.06 111.574 31.94 111.987 31.7C112.4 31.4467 112.7 31.08 112.887 30.6L113.367 32.04C113.14 32.7333 112.727 33.26 112.127 33.62C111.527 33.98 110.754 34.16 109.807 34.16ZM125.191 34.16C124.244 34.16 123.431 33.96 122.751 33.56C122.071 33.16 121.551 32.5533 121.191 31.74C120.831 30.9133 120.651 29.8733 120.651 28.62C120.651 27.3533 120.837 26.3133 121.211 25.5C121.597 24.6867 122.131 24.08 122.811 23.68C123.491 23.28 124.284 23.08 125.191 23.08C126.204 23.08 127.111 23.3067 127.911 23.76C128.724 24.2133 129.364 24.8533 129.831 25.68C130.311 26.5067 130.551 27.4867 130.551 28.62C130.551 29.74 130.311 30.7133 129.831 31.54C129.364 32.3667 128.724 33.0133 127.911 33.48C127.111 33.9333 126.204 34.16 125.191 34.16ZM118.831 34V19.16H121.951V25.42L121.751 28.6L121.811 31.8V34H118.831ZM124.651 31.6C125.171 31.6 125.631 31.48 126.031 31.24C126.444 31 126.771 30.66 127.011 30.22C127.264 29.7667 127.391 29.2333 127.391 28.62C127.391 27.9933 127.264 27.46 127.011 27.02C126.771 26.58 126.444 26.24 126.031 26C125.631 25.76 125.171 25.64 124.651 25.64C124.131 25.64 123.664 25.76 123.251 26C122.837 26.24 122.511 26.58 122.271 27.02C122.031 27.46 121.911 27.9933 121.911 28.62C121.911 29.2333 122.031 29.7667 122.271 30.22C122.511 30.66 122.837 31 123.251 31.24C123.664 31.48 124.131 31.6 124.651 31.6Z" fill="black"/>
<path d="M64.9419 59.9688L69.9339 48.7687H72.4939L77.5019 59.9688H74.7819L70.6859 50.0807H71.7099L67.5979 59.9688H64.9419ZM67.4379 57.5687L68.1259 55.6007H73.8859L74.5899 57.5687H67.4379ZM82.1058 60.0968C81.2951 60.0968 80.5645 59.9154 79.9138 59.5527C79.2631 59.1794 78.7458 58.6621 78.3618 58.0007C77.9885 57.3394 77.8018 56.5607 77.8018 55.6647C77.8018 54.7581 77.9885 53.9741 78.3618 53.3127C78.7458 52.6514 79.2631 52.1394 79.9138 51.7767C80.5645 51.4141 81.2951 51.2327 82.1058 51.2327C82.8311 51.2327 83.4658 51.3927 84.0098 51.7127C84.5538 52.0327 84.9751 52.5181 85.2738 53.1687C85.5725 53.8194 85.7218 54.6514 85.7218 55.6647C85.7218 56.6674 85.5778 57.4994 85.2898 58.1607C85.0018 58.8114 84.5858 59.2967 84.0418 59.6167C83.5085 59.9367 82.8631 60.0968 82.1058 60.0968ZM82.5378 58.0487C82.9431 58.0487 83.3111 57.9527 83.6418 57.7607C83.9725 57.5687 84.2338 57.2967 84.4258 56.9447C84.6285 56.5821 84.7298 56.1554 84.7298 55.6647C84.7298 55.1634 84.6285 54.7367 84.4258 54.3847C84.2338 54.0327 83.9725 53.7607 83.6418 53.5687C83.3111 53.3767 82.9431 53.2807 82.5378 53.2807C82.1218 53.2807 81.7485 53.3767 81.4178 53.5687C81.0871 53.7607 80.8205 54.0327 80.6178 54.3847C80.4258 54.7367 80.3298 55.1634 80.3298 55.6647C80.3298 56.1554 80.4258 56.5821 80.6178 56.9447C80.8205 57.2967 81.0871 57.5687 81.4178 57.7607C81.7485 57.9527 82.1218 58.0487 82.5378 58.0487ZM84.7938 59.9688V58.2087L84.8418 55.6487L84.6818 53.1047V48.0967H87.1778V59.9688H84.7938ZM100.512 51.2327C101.195 51.2327 101.797 51.3714 102.32 51.6487C102.853 51.9154 103.269 52.3314 103.568 52.8967C103.877 53.4514 104.032 54.1661 104.032 55.0407V59.9688H101.536V55.4247C101.536 54.7314 101.392 54.2194 101.104 53.8887C100.816 53.5581 100.411 53.3927 99.8879 53.3927C99.5253 53.3927 99.1999 53.4781 98.9119 53.6487C98.6239 53.8087 98.3999 54.0541 98.2399 54.3847C98.0799 54.7154 97.9999 55.1367 97.9999 55.6487V59.9688H95.5039V55.4247C95.5039 54.7314 95.3599 54.2194 95.0719 53.8887C94.7946 53.5581 94.3946 53.3927 93.8719 53.3927C93.5093 53.3927 93.1839 53.4781 92.8959 53.6487C92.6079 53.8087 92.3839 54.0541 92.2239 54.3847C92.0639 54.7154 91.9839 55.1367 91.9839 55.6487V59.9688H89.4879V51.3607H91.8719V53.7127L91.4239 53.0247C91.7226 52.4381 92.1439 51.9954 92.6879 51.6967C93.2426 51.3874 93.8719 51.2327 94.5759 51.2327C95.3653 51.2327 96.0533 51.4354 96.6399 51.8407C97.2373 52.2354 97.6319 52.8434 97.8239 53.6647L96.9439 53.4247C97.2319 52.7527 97.6906 52.2194 98.3199 51.8247C98.9599 51.4301 99.6906 51.2327 100.512 51.2327ZM106.269 59.9688V51.3607H108.765V59.9688H106.269ZM107.517 50.1607C107.059 50.1607 106.685 50.0274 106.397 49.7607C106.109 49.4941 105.965 49.1634 105.965 48.7687C105.965 48.3741 106.109 48.0434 106.397 47.7767C106.685 47.5101 107.059 47.3767 107.517 47.3767C107.976 47.3767 108.349 47.5047 108.637 47.7607C108.925 48.0061 109.069 48.3261 109.069 48.7207C109.069 49.1367 108.925 49.4834 108.637 49.7607C108.36 50.0274 107.987 50.1607 107.517 50.1607ZM116.314 51.2327C116.996 51.2327 117.604 51.3714 118.138 51.6487C118.682 51.9154 119.108 52.3314 119.418 52.8967C119.727 53.4514 119.882 54.1661 119.882 55.0407V59.9688H117.386V55.4247C117.386 54.7314 117.231 54.2194 116.922 53.8887C116.623 53.5581 116.196 53.3927 115.642 53.3927C115.247 53.3927 114.89 53.4781 114.57 53.6487C114.26 53.8087 114.015 54.0594 113.834 54.4007C113.663 54.7421 113.578 55.1794 113.578 55.7127V59.9688H111.082V51.3607H113.466V53.7447L113.018 53.0247C113.327 52.4487 113.77 52.0061 114.346 51.6967C114.922 51.3874 115.578 51.2327 116.314 51.2327ZM126.851 59.9688V48.7687H131.699C132.702 48.7687 133.566 48.9341 134.291 49.2647C135.017 49.5847 135.577 50.0487 135.971 50.6567C136.366 51.2647 136.563 51.9901 136.563 52.8327C136.563 53.6647 136.366 54.3847 135.971 54.9927C135.577 55.6007 135.017 56.0701 134.291 56.4007C133.566 56.7207 132.702 56.8807 131.699 56.8807H128.291L129.443 55.7127V59.9688H126.851ZM129.443 56.0007L128.291 54.7687H131.555C132.355 54.7687 132.953 54.5981 133.347 54.2567C133.742 53.9154 133.939 53.4407 133.939 52.8327C133.939 52.2141 133.742 51.7341 133.347 51.3927C132.953 51.0514 132.355 50.8807 131.555 50.8807H128.291L129.443 49.6487V56.0007ZM143.44 59.9688V58.2887L143.28 57.9207V54.9127C143.28 54.3794 143.114 53.9634 142.784 53.6647C142.464 53.3661 141.968 53.2167 141.296 53.2167C140.837 53.2167 140.384 53.2914 139.936 53.4407C139.498 53.5794 139.125 53.7714 138.816 54.0167L137.92 52.2727C138.389 51.9421 138.954 51.6861 139.616 51.5047C140.277 51.3234 140.949 51.2327 141.632 51.2327C142.944 51.2327 143.962 51.5421 144.688 52.1607C145.413 52.7794 145.776 53.7447 145.776 55.0567V59.9688H143.44ZM140.816 60.0968C140.144 60.0968 139.568 59.9848 139.088 59.7607C138.608 59.5261 138.24 59.2114 137.984 58.8167C137.728 58.4221 137.6 57.9794 137.6 57.4887C137.6 56.9767 137.722 56.5287 137.968 56.1447C138.224 55.7607 138.624 55.4621 139.168 55.2487C139.712 55.0247 140.421 54.9127 141.296 54.9127H143.584V56.3687H141.568C140.981 56.3687 140.576 56.4647 140.352 56.6567C140.138 56.8487 140.032 57.0887 140.032 57.3767C140.032 57.6968 140.154 57.9527 140.4 58.1447C140.656 58.3261 141.002 58.4167 141.44 58.4167C141.856 58.4167 142.229 58.3207 142.56 58.1287C142.89 57.9261 143.13 57.6327 143.28 57.2487L143.664 58.4007C143.482 58.9554 143.152 59.3767 142.672 59.6647C142.192 59.9527 141.573 60.0968 140.816 60.0968ZM153.267 51.2327C153.949 51.2327 154.557 51.3714 155.091 51.6487C155.635 51.9154 156.061 52.3314 156.371 52.8967C156.68 53.4514 156.835 54.1661 156.835 55.0407V59.9688H154.339V55.4247C154.339 54.7314 154.184 54.2194 153.875 53.8887C153.576 53.5581 153.149 53.3927 152.595 53.3927C152.2 53.3927 151.843 53.4781 151.523 53.6487C151.213 53.8087 150.968 54.0594 150.787 54.4007C150.616 54.7421 150.531 55.1794 150.531 55.7127V59.9688H148.035V51.3607H150.419V53.7447L149.971 53.0247C150.28 52.4487 150.723 52.0061 151.299 51.6967C151.875 51.3874 152.531 51.2327 153.267 51.2327ZM163.432 60.0968C162.45 60.0968 161.586 59.9047 160.84 59.5207C160.104 59.1367 159.533 58.6141 159.128 57.9527C158.722 57.2807 158.52 56.5181 158.52 55.6647C158.52 54.8007 158.717 54.0381 159.112 53.3767C159.517 52.7047 160.066 52.1821 160.76 51.8087C161.453 51.4247 162.237 51.2327 163.112 51.2327C163.954 51.2327 164.712 51.4141 165.384 51.7767C166.066 52.1287 166.605 52.6407 167 53.3127C167.394 53.9741 167.592 54.7687 167.592 55.6967C167.592 55.7927 167.586 55.9047 167.576 56.0327C167.565 56.1501 167.554 56.2621 167.544 56.3687H160.552V54.9127H166.232L165.272 55.3447C165.272 54.8967 165.181 54.5074 165 54.1767C164.818 53.8461 164.568 53.5901 164.248 53.4087C163.928 53.2167 163.554 53.1207 163.128 53.1207C162.701 53.1207 162.322 53.2167 161.992 53.4087C161.672 53.5901 161.421 53.8514 161.24 54.1927C161.058 54.5234 160.968 54.9181 160.968 55.3767V55.7607C160.968 56.2301 161.069 56.6461 161.272 57.0087C161.485 57.3607 161.778 57.6327 162.152 57.8247C162.536 58.0061 162.984 58.0967 163.496 58.0967C163.954 58.0967 164.354 58.0274 164.696 57.8887C165.048 57.7501 165.368 57.5421 165.656 57.2647L166.984 58.7047C166.589 59.1527 166.093 59.4994 165.496 59.7447C164.898 59.9794 164.21 60.0968 163.432 60.0968ZM169.254 59.9688V48.0967H171.75V59.9688H169.254Z" fill="black"/>
<defs>
<clipPath id="clip0_692_507">
<rect width="58" height="79" fill="white"/>
</clipPath>
</defs>
</svg>
