<svg width="14" height="14" viewBox="0 0 14 14" fill="none" xmlns="http://www.w3.org/2000/svg">
<circle cx="7" cy="7" r="6.5" fill="none" stroke="#FF0000"/>
<path d="M7.63885 3.27273L7.52805 9.49006H6.34766L6.23686 3.27273H7.63885ZM6.93999 12.081C6.70419 12.081 6.50249 11.9986 6.33487 11.8338C6.16726 11.6662 6.08487 11.4645 6.08771 11.2287C6.08487 10.9957 6.16726 10.7969 6.33487 10.6321C6.50249 10.4645 6.70419 10.3807 6.93999 10.3807C7.1701 10.3807 7.36896 10.4645 7.53658 10.6321C7.70419 10.7969 7.78942 10.9957 7.79226 11.2287C7.78942 11.3849 7.74822 11.5284 7.66868 11.6591C7.59197 11.7869 7.4897 11.8892 7.36186 11.9659C7.23402 12.0426 7.09339 12.081 6.93999 12.081Z" fill="#FF0000"/>
</svg>
